<svg version="1" xmlns="http://www.w3.org/2000/svg" width="273.333" height="273.333" viewBox="0 0 205.000000 205.000000"><path d="M85 18.5c-36.8 7.7-64.8 37.8-68.7 74-2 18.9.6 33.6 9.1 50 12 23.5 33.1 39.3 59.6 45 9.2 1.9 26.3 1.6 36.3-.7 17-3.9 36-15.7 47-29.3 7.9-9.8 15.5-25 17.3-34.7 1.8-9.8 2.1-13.8 2-22-.2-7.3-.5-9.3-1.9-10.3-3.7-2.7-6.4-.3-7.2 6.3-1.4 11.1-10.2 16.3-15.6 9.3-5.5-7.1-5.1-6.9-12.6-7.6l-7.1-.6-4 4.1c-3.4 3.3-4.7 4-8 4-7.2 0-12.8-8.3-11.9-17.5.4-4.3.1-5.7-2.5-9.8-1.7-2.6-3.3-4.7-3.7-4.8-8.8-1-16.1-6.2-16.1-11.4 0-2.8 4.3-8.1 7.3-9.1 5.9-1.8 7.9-8.7 3.3-11.7-4.9-3.2-7.1-12.4-4.2-17.6 1-1.9 1.1-3.1.3-4.8-1-2.2-1.6-2.4-7.1-2.2-3.4.2-8.6.8-11.6 1.4zM148.3 30.1c-2 1.2-3.5 3.2-3.9 5.2-.8 3.1-.8 3.9-.5 7.1.2 2.9 5.1 7.4 8.6 8 12.2 2.3 18.5-15.2 7.5-20.9-4-2-7.9-1.9-11.7.6z"/><path d="M121.5 38.9c-5.3 2.2-7.9 10.1-4.9 14.7 1.7 2.5 5.5 4.4 9 4.4 9.4 0 12.5-14.3 4-18.4-3.7-1.8-5.1-1.9-8.1-.7zM134.5 65.5c-7.7 2.7-11.6 10.7-8.3 16.8 4.6 8.7 18.6 10.8 27.5 4.1 5.8-4.4 6.2-11.6 1-17.3-4.1-4.4-13.4-6.1-20.2-3.6z"/></svg>